<svg width="54" height="28" viewBox="0 0 54 28" fill="none" xmlns="http://www.w3.org/2000/svg">
<path d="M6.57538 27H0.643565L9.68192 0.818181H16.8154L25.841 27H19.9092L13.351 6.80114H13.1464L6.57538 27ZM6.20464 16.7088H20.216V21.0298H6.20464V16.7088ZM47.4626 9.28125C47.2836 8.65909 47.0322 8.10937 46.7084 7.6321C46.3845 7.14631 45.9882 6.73722 45.5194 6.40483C45.0592 6.06392 44.5308 5.80398 43.9342 5.625C43.3461 5.44602 42.6941 5.35653 41.9782 5.35653C40.6402 5.35653 39.464 5.68892 38.4498 6.35369C37.4441 7.01846 36.6601 7.98579 36.0976 9.25568C35.5351 10.517 35.2538 12.0597 35.2538 13.8835C35.2538 15.7074 35.5308 17.2585 36.0848 18.5369C36.6387 19.8153 37.4228 20.7912 38.437 21.4645C39.4512 22.1293 40.6487 22.4616 42.0294 22.4616C43.2822 22.4616 44.3518 22.2401 45.2382 21.7969C46.1331 21.3452 46.8149 20.7102 47.2836 19.892C47.7609 19.0739 47.9995 18.1065 47.9995 16.9901L49.1245 17.1562H42.3745V12.9886H53.3305V16.2869C53.3305 18.5881 52.8447 20.5653 51.8731 22.2188C50.9015 23.8636 49.5635 25.1335 47.8589 26.0284C46.1544 26.9148 44.2027 27.358 42.0038 27.358C39.5493 27.358 37.393 26.8168 35.5351 25.7344C33.6771 24.6435 32.2282 23.0966 31.1885 21.0938C30.1572 19.0824 29.6416 16.696 29.6416 13.9347C29.6416 11.8125 29.9484 9.92045 30.562 8.25852C31.1842 6.58807 32.0535 5.1733 33.17 4.0142C34.2865 2.85511 35.5862 1.97301 37.0691 1.3679C38.5521 0.762783 40.1586 0.460226 41.8887 0.460226C43.3717 0.460226 44.7524 0.677556 46.0308 1.11222C47.3092 1.53835 48.4427 2.14347 49.4314 2.92756C50.4285 3.71165 51.2424 4.64489 51.8731 5.72727C52.5038 6.80114 52.9086 7.98579 53.0876 9.28125H47.4626Z" fill="#64FFDA"/>
</svg>
