<svg width="129" height="37" viewBox="0 0 129 37" fill="none" xmlns="http://www.w3.org/2000/svg">
<path d="M0.83957 28.8517V14.6337H18.7644V13.8022H0.83957V0.831461H19.8978V0H0V29.6831H20.0657V28.8517H0.83957ZM36.2275 8.31461L28.7973 18.0011L21.535 8.31461H20.4435L28.2935 18.6247L19.6879 29.6831H20.6954L28.7973 19.2483L36.9411 29.6831H37.9906L29.343 18.6247L37.235 8.31461H36.2275ZM40.5093 37V23.6966H40.5932C41.097 25.6367 42.0905 27.1957 43.5737 28.3736C45.057 29.5515 46.946 30.1404 49.2408 30.1404C50.7241 30.1404 52.0394 29.8425 53.1868 29.2466C54.3342 28.6507 55.2927 27.8401 56.0623 26.8146C56.8319 25.7891 57.4196 24.5974 57.8254 23.2393C58.2312 21.8813 58.4341 20.4539 58.4341 18.9573C58.4341 17.3498 58.2242 15.867 57.8044 14.509C57.3846 13.1509 56.776 11.973 55.9784 10.9753C55.1808 9.97752 54.2153 9.2015 53.0818 8.64719C51.9484 8.09288 50.6681 7.81573 49.2408 7.81573C48.1494 7.81573 47.1349 7.97509 46.1974 8.29382C45.2598 8.61255 44.4273 9.06292 43.6996 9.64494C42.972 10.227 42.3423 10.9129 41.8106 11.7028C41.2789 12.4927 40.8731 13.3588 40.5932 14.3011H40.5093V8.31461H39.6697V37H40.5093ZM49.2408 29.3506C46.6101 29.3506 44.4972 28.4567 42.9021 26.6691C41.3069 24.8815 40.5093 22.3109 40.5093 18.9573C40.5093 17.5715 40.7052 16.2551 41.097 15.0079C41.4888 13.7607 42.0555 12.6659 42.7971 11.7236C43.5387 10.7813 44.4552 10.033 45.5467 9.47865C46.6381 8.92434 47.8695 8.64719 49.2408 8.64719C50.6401 8.64719 51.8645 8.92434 52.9139 9.47865C53.9634 10.033 54.8309 10.7882 55.5166 11.7444C56.2022 12.7006 56.72 13.7953 57.0698 15.0287C57.4196 16.262 57.5945 17.5715 57.5945 18.9573C57.5945 20.2045 57.4336 21.4447 57.1118 22.6781C56.7899 23.9114 56.2932 25.02 55.6215 26.0039C54.9499 26.9878 54.0893 27.7916 53.0399 28.4152C51.9904 29.0388 50.7241 29.3506 49.2408 29.3506ZM63.0517 29.6831V17.5854C63.0517 16.4213 63.2197 15.285 63.5555 14.1764C63.8913 13.0678 64.409 12.0908 65.1087 11.2455C65.8083 10.4002 66.6969 9.73502 67.7743 9.25C68.8518 8.76498 70.1321 8.56404 71.6154 8.64719V7.81573C70.328 7.78801 69.2016 7.92659 68.2361 8.23146C67.2706 8.53633 66.438 8.95206 65.7384 9.47865C65.0387 10.0052 64.479 10.6219 64.0592 11.3287C63.6394 12.0354 63.3316 12.7906 63.1357 13.5944H63.0517V8.31461H62.2122V29.6831H63.0517ZM72.6648 19.1652H90.7156C90.7716 17.6962 90.6246 16.2828 90.2748 14.9247C89.925 13.5667 89.3653 12.3611 88.5957 11.3079C87.8261 10.2547 86.8326 9.40937 85.6152 8.77191C84.3978 8.13445 82.9496 7.81573 81.2704 7.81573C80.067 7.81573 78.8916 8.06517 77.7442 8.56404C76.5968 9.06292 75.5893 9.79044 74.7218 10.7466C73.8542 11.7028 73.1546 12.8738 72.6228 14.2596C72.0911 15.6453 71.8253 17.2251 71.8253 18.9989C71.8253 20.5787 72.0072 22.0545 72.371 23.4264C72.7348 24.7983 73.2945 25.9901 74.0501 27.0017C74.8057 28.0133 75.7782 28.7962 76.9676 29.3506C78.157 29.9049 79.5913 30.1682 81.2704 30.1404C83.7332 30.1404 85.8041 29.4545 87.4832 28.0826C89.1624 26.7107 90.1559 24.7775 90.4637 22.2831H89.6241C89.2603 24.639 88.3298 26.4058 86.8326 27.5837C85.3353 28.7616 83.4533 29.3506 81.1865 29.3506C79.6472 29.3506 78.3459 29.0873 77.2825 28.5607C76.219 28.0341 75.3514 27.3135 74.6798 26.3989C74.0081 25.4843 73.5114 24.4103 73.1896 23.177C72.8677 21.9436 72.6928 20.6064 72.6648 19.1652ZM89.876 18.3337H72.6648C72.7488 16.8371 73.0286 15.4929 73.5044 14.3011C73.9802 13.1094 74.6028 12.0908 75.3724 11.2455C76.142 10.4002 77.0376 9.75581 78.0591 9.31236C79.0806 8.86891 80.179 8.64719 81.3544 8.64719C82.7537 8.64719 83.985 8.90356 85.0485 9.41629C86.112 9.92903 87.0005 10.6288 87.7141 11.5157C88.4278 12.4026 88.9665 13.435 89.3303 14.6129C89.6941 15.7908 89.876 17.0311 89.876 18.3337ZM108.137 14.6337H108.976C108.976 12.2502 108.277 10.518 106.877 9.43708C105.478 8.35617 103.575 7.81573 101.168 7.81573C99.8249 7.81573 98.6915 7.98202 97.768 8.31461C96.8444 8.64719 96.0888 9.07678 95.5011 9.60337C94.9134 10.13 94.4937 10.712 94.2418 11.3494C93.9899 11.9869 93.864 12.5966 93.864 13.1787C93.864 14.3427 94.0739 15.2712 94.4937 15.964C94.9134 16.6569 95.5711 17.1974 96.4666 17.5854C97.0823 17.8625 97.782 18.112 98.5656 18.3337C99.3492 18.5554 100.259 18.791 101.294 19.0404C102.218 19.2622 103.127 19.4839 104.023 19.7056C104.918 19.9273 105.709 20.2253 106.395 20.5994C107.08 20.9736 107.64 21.4517 108.074 22.0337C108.507 22.6157 108.724 23.3779 108.724 24.3202C108.724 25.2348 108.507 26.0109 108.074 26.6483C107.64 27.2858 107.087 27.8054 106.416 28.2073C105.744 28.6092 104.995 28.9002 104.17 29.0803C103.344 29.2605 102.54 29.3506 101.756 29.3506C99.2092 29.3506 97.2572 28.7893 95.8999 27.6669C94.5426 26.5444 93.864 24.7775 93.864 22.3663H93.0244C93.0244 25.0547 93.759 27.0225 95.2283 28.2697C96.6975 29.5169 98.8734 30.1404 101.756 30.1404C102.679 30.1404 103.61 30.0365 104.548 29.8287C105.485 29.6208 106.325 29.2813 107.066 28.8101C107.808 28.3389 108.41 27.7292 108.871 26.9809C109.333 26.2326 109.564 25.318 109.564 24.2371C109.564 23.2116 109.361 22.3802 108.955 21.7427C108.549 21.1052 108.018 20.5787 107.36 20.1629C106.702 19.7472 105.961 19.4215 105.135 19.186C104.31 18.9504 103.477 18.7217 102.637 18.5C101.462 18.1951 100.434 17.9318 99.5521 17.7101C98.6705 17.4884 97.8519 17.2251 97.0963 16.9202C96.3687 16.6154 95.788 16.1788 95.3542 15.6107C94.9204 15.0425 94.7036 14.2318 94.7036 13.1787C94.7036 12.9846 94.7595 12.6382 94.8715 12.1393C94.9834 11.6404 95.2493 11.1346 95.6691 10.6219C96.0888 10.1092 96.7325 9.65187 97.6001 9.25C98.4676 8.84813 99.657 8.64719 101.168 8.64719C102.204 8.64719 103.148 8.75805 104.002 8.97978C104.855 9.2015 105.59 9.55487 106.206 10.0399C106.821 10.5249 107.297 11.1416 107.633 11.8899C107.969 12.6382 108.137 13.5528 108.137 14.6337ZM127.573 14.6337H128.412C128.412 12.2502 127.713 10.518 126.313 9.43708C124.914 8.35617 123.011 7.81573 120.604 7.81573C119.261 7.81573 118.128 7.98202 117.204 8.31461C116.281 8.64719 115.525 9.07678 114.937 9.60337C114.349 10.13 113.93 10.712 113.678 11.3494C113.426 11.9869 113.3 12.5966 113.3 13.1787C113.3 14.3427 113.51 15.2712 113.93 15.964C114.349 16.6569 115.007 17.1974 115.903 17.5854C116.518 17.8625 117.218 18.112 118.002 18.3337C118.785 18.5554 119.695 18.791 120.73 19.0404C121.654 19.2622 122.563 19.4839 123.459 19.7056C124.354 19.9273 125.145 20.2253 125.831 20.5994C126.516 20.9736 127.076 21.4517 127.51 22.0337C127.944 22.6157 128.16 23.3779 128.16 24.3202C128.16 25.2348 127.944 26.0109 127.51 26.6483C127.076 27.2858 126.523 27.8054 125.852 28.2073C125.18 28.6092 124.431 28.9002 123.606 29.0803C122.78 29.2605 121.976 29.3506 121.192 29.3506C118.645 29.3506 116.693 28.7893 115.336 27.6669C113.979 26.5444 113.3 24.7775 113.3 22.3663H112.46C112.46 25.0547 113.195 27.0225 114.664 28.2697C116.134 29.5169 118.309 30.1404 121.192 30.1404C122.116 30.1404 123.046 30.0365 123.984 29.8287C124.921 29.6208 125.761 29.2813 126.502 28.8101C127.244 28.3389 127.846 27.7292 128.307 26.9809C128.769 26.2326 129 25.318 129 24.2371C129 23.2116 128.797 22.3802 128.391 21.7427C127.986 21.1052 127.454 20.5787 126.796 20.1629C126.138 19.7472 125.397 19.4215 124.571 19.186C123.746 18.9504 122.913 18.7217 122.074 18.5C120.898 18.1951 119.87 17.9318 118.988 17.7101C118.107 17.4884 117.288 17.2251 116.532 16.9202C115.805 16.6154 115.224 16.1788 114.79 15.6107C114.356 15.0425 114.14 14.2318 114.14 13.1787C114.14 12.9846 114.196 12.6382 114.308 12.1393C114.419 11.6404 114.685 11.1346 115.105 10.6219C115.525 10.1092 116.169 9.65187 117.036 9.25C117.904 8.84813 119.093 8.64719 120.604 8.64719C121.64 8.64719 122.584 8.75805 123.438 8.97978C124.291 9.2015 125.026 9.55487 125.642 10.0399C126.257 10.5249 126.733 11.1416 127.069 11.8899C127.405 12.6382 127.573 13.5528 127.573 14.6337Z" fill="#64FFDA"/>
</svg>
