<svg width="61" height="60" viewBox="0 0 61 60" fill="none" xmlns="http://www.w3.org/2000/svg">
<path d="M35.9267 29.9422C35.9267 32.9 33.489 35.2978 30.4819 35.2978C27.4748 35.2978 25.0371 32.9 25.0371 29.9422C25.0371 26.9844 27.4748 24.5867 30.4819 24.5867C33.489 24.5867 35.9267 26.9844 35.9267 29.9422Z" fill="#64FFDA"/>
<path d="M30.4797 42.2089C30.0256 42.22 29.4901 42.2267 28.9524 42.2267C22.6016 42.2267 16.4768 41.2822 10.7134 39.5289L11.1494 39.6422C8.09719 38.6733 5.4516 37.2444 3.14941 35.4133L3.19686 35.4489C1.4143 34.18 0.214633 32.2156 0.0113001 29.9667L0.00904083 29.9378C0.00904083 26.3956 3.95597 22.9289 10.5846 20.6667C16.2599 18.8289 22.7914 17.7689 29.5737 17.7689C29.8877 17.7689 30.2018 17.7711 30.5158 17.7756H30.4684C30.7304 17.7711 31.0377 17.7689 31.3472 17.7689C38.0459 17.7689 44.4961 18.8111 50.5419 20.74L50.1013 20.6178C53.0497 21.56 55.6094 22.92 57.8574 24.6489L57.8031 24.6089C59.5541 25.8222 60.7357 27.7289 60.9345 29.9133L60.9367 29.9422C60.9367 33.6222 56.5222 37.3467 49.4077 39.6622C44.0691 41.2822 37.9307 42.2156 31.5709 42.2156C31.1868 42.2156 30.805 42.2111 30.4232 42.2044H30.4797V42.2089ZM30.4797 20.3422C30.2402 20.3378 29.9555 20.3378 29.6709 20.3378C23.1619 20.3378 16.8925 21.3422 11.0116 23.2022L11.4432 23.0844C5.34767 25.1756 2.61397 28.0356 2.61397 29.9444C2.61397 31.9289 5.55326 35.0556 11.9967 37.22C17.0777 38.7689 22.9179 39.6622 28.9705 39.6622C29.5014 39.6622 30.0301 39.6556 30.5565 39.6422L30.4797 39.6444C30.8095 39.6511 31.1981 39.6556 31.5867 39.6556C37.6506 39.6556 43.502 38.7667 49.0169 37.1156L48.5944 37.2244C55.2818 35.0378 58.3544 31.9111 58.3544 29.9356C58.124 28.5178 57.3106 27.3222 56.172 26.5689L56.1539 26.5578C54.1974 25.06 51.9155 23.8533 49.4439 23.06L49.2857 23.0156C43.9358 21.3133 37.7793 20.3311 31.3924 20.3311C31.0716 20.3311 30.753 20.3333 30.4345 20.3378H30.4819L30.4797 20.3422Z" fill="#64FFDA"/>
<path d="M18.126 56.6356C18.0899 56.6356 18.047 56.6378 18.0063 56.6378C16.9828 56.6378 16.0227 56.3733 15.1935 55.9111L15.2229 55.9267C12.1096 54.1489 11.0252 49.0556 12.331 42.28C13.9057 35.3289 16.4587 29.1822 19.886 23.6133L19.7301 23.8889C23.1167 17.9889 27.2083 12.9422 31.9866 8.61779L32.0318 8.57779C34.1171 6.70224 36.5571 5.16224 39.232 4.07112L39.397 4.01112C40.3165 3.57557 41.3964 3.32224 42.5373 3.32224C43.6692 3.32224 44.7424 3.57335 45.7003 4.02001L45.6551 4.00224C48.8971 5.83779 49.9726 11.4689 48.4521 18.6822C46.8254 25.2756 44.3447 31.0822 41.0824 36.3689L41.2405 36.0956C37.9601 41.94 33.9906 46.9445 29.3433 51.2489L29.3116 51.2778C27.1473 53.2267 24.6056 54.8111 21.8086 55.9045L21.6414 55.9622C20.6022 56.3645 19.4003 56.6111 18.1418 56.64H18.1283L18.126 56.6356ZM20.8484 24.5311L21.9758 25.1711C18.8558 30.2378 16.4067 36.1178 14.9586 42.3711L14.8817 42.7711C13.6776 49.0133 14.8388 52.7667 16.5084 53.7178C16.9399 53.9445 17.4505 54.0756 17.9927 54.0756C18.0379 54.0756 18.0854 54.0756 18.1306 54.0733H18.1238C20.2814 54.0733 23.677 52.7289 27.6036 49.3578C32.0679 45.2089 35.859 40.4178 38.8367 35.1267L38.9903 34.8267C41.968 30.0356 44.347 24.4867 45.8246 18.5889L45.9104 18.1845C47.3315 11.3889 46.1047 7.2289 44.3606 6.23335C43.8228 6.02446 43.1993 5.90446 42.5486 5.90446C41.7263 5.90446 40.9491 6.09779 40.2623 6.43779L40.2916 6.42446C37.7658 7.45779 35.5969 8.83779 33.724 10.5267L33.7398 10.5133C29.1286 14.6933 25.2178 19.5289 22.1362 24.8867L21.9803 25.18L20.8484 24.5311Z" fill="#64FFDA"/>
<path d="M42.8356 56.6667C39.885 56.6667 36.1481 54.9178 32.2396 51.6089C27.3257 47.2022 23.1642 42.0933 19.895 36.4222L19.7324 36.1178C16.5016 30.8978 13.969 24.84 12.4689 18.3956L12.3875 17.9845C12.0215 16.4089 11.8114 14.6022 11.8114 12.7467C11.8114 11.5756 11.895 10.4267 12.0554 9.30001L12.0396 9.4289C12.2316 7.21112 13.4132 5.30001 15.1393 4.09779L15.1619 4.08223C18.3926 2.23779 23.8939 4.13556 29.4901 9.03334C34.0583 13.2867 37.9578 18.1733 41.053 23.5667L41.2157 23.8733C44.4419 28.9778 46.9926 34.8978 48.5402 41.2022L48.626 41.6156C48.9943 43.1911 49.2067 45.0022 49.2067 46.86C49.2067 48.1422 49.1073 49.4 48.913 50.6289L48.931 50.4911C48.6983 52.7622 47.4761 54.7156 45.7026 55.9489L45.6777 55.9645C44.8915 56.4067 43.9516 56.6667 42.9508 56.6667C42.9101 56.6667 42.8694 56.6667 42.8288 56.6645H42.8356V56.6667ZM21.9871 34.8378C25.2811 40.5511 29.2551 45.44 33.8957 49.6289L33.9409 49.6689C38.8344 53.8089 42.7158 54.7045 44.3967 53.7445C46.1431 52.7533 47.4219 48.6867 46.1002 42.1156C44.5142 35.6933 42.0629 30.04 38.8276 24.9133L38.9745 25.1622C35.859 19.7045 32.1357 15.0245 27.7957 10.9756L27.7686 10.9511C22.4954 6.34223 18.2232 5.30668 16.4768 6.29779C15.4081 7.15334 14.7055 8.41334 14.6129 9.83779V9.85334C14.4886 10.72 14.4186 11.72 14.4186 12.7378C14.4186 14.42 14.6129 16.0556 14.9789 17.6289L14.9495 17.4822C16.47 24.0422 18.8964 29.8356 22.1385 35.0911L21.9894 34.8311L21.9871 34.8378Z" fill="#64FFDA"/>
</svg>
