<svg width="63" height="58" viewBox="0 0 63 58" fill="none" xmlns="http://www.w3.org/2000/svg">
<path d="M43.6642 40.4769C45.9455 40.2858 47.7149 38.3362 47.5994 36.0069C47.4786 33.6777 45.5123 31.8071 43.1155 31.8071H42.9554C40.4798 31.8861 38.5503 33.907 38.6291 36.3153C38.7078 37.536 39.2224 38.5299 39.9259 39.2537C37.1747 44.4474 33.0453 48.265 26.7894 51.4734C22.5812 53.609 18.1367 54.4143 13.8104 53.8409C10.1929 53.3465 7.3629 51.7767 5.63027 49.2588C3.03657 45.4387 2.8003 41.3179 4.96084 37.1945C6.53859 34.2154 8.89602 32.039 10.4711 30.9687C10.0774 29.9773 9.60483 28.2979 9.36856 27.039C-2.27684 35.1354 -1.09287 46.2058 2.4459 51.4378C5.0816 55.2553 10.4711 57.6967 16.37 57.6967C17.9425 57.6967 19.5963 57.5846 21.2082 57.2023C31.436 55.2936 39.183 49.3379 43.6274 40.5559L43.6642 40.4769ZM57.7038 30.9304C51.6107 23.9808 42.6404 20.1633 32.4126 20.1633H31.0737C30.4096 18.7514 28.8764 17.8722 27.1438 17.8722H27.0257C24.5501 17.8722 22.6206 19.9365 22.702 22.3396C22.7807 24.6281 24.7864 26.5395 27.1858 26.5395H27.3801C29.1521 26.463 30.6852 25.3927 31.3126 23.8662H32.7696C38.8312 23.8662 44.5699 25.5838 49.8019 28.9427C53.8106 31.5013 56.6852 34.8601 58.2971 38.8714C59.7094 42.1538 59.6333 45.3623 58.1789 48.0381C55.937 52.2354 52.1594 54.4526 47.1662 54.4526C44.0186 54.4526 40.9524 53.4969 39.3772 52.8114C38.4348 53.5708 36.8597 54.8323 35.7177 55.5968C39.1777 57.1208 42.6797 58 46.061 58C53.7318 58 59.4312 53.8027 61.597 49.7532C63.9544 45.1711 63.7601 37.4596 57.7405 30.854L57.7038 30.9304ZM17.0368 41.848C17.1129 44.139 19.1186 46.0478 21.5206 46.0478H21.6781C24.1957 45.9714 26.1226 43.9504 26.0045 41.5422C26.0045 39.2511 23.9594 37.3449 21.56 37.3449H21.3999C21.2424 37.3449 21.0087 37.3449 20.8092 37.4188C17.5461 32.0722 16.1678 26.3433 16.6824 20.1633C16.9948 15.5047 18.5699 11.4552 21.3999 8.0964C23.7599 5.23195 28.2044 3.81757 31.2339 3.74366C39.729 3.58821 43.2704 13.8635 43.5434 17.9487L47.476 19.0929C46.5703 6.56989 38.5503 0 30.8795 0C23.6812 0 17.0368 5.07905 14.3591 12.5256C10.7022 22.4543 13.1016 31.9982 17.5854 39.6359C17.1943 40.1329 16.958 41.0095 17.0368 41.848Z" fill="#64FFDA"/>
</svg>
