<svg width="75" height="60" viewBox="0 0 75 60" fill="none" xmlns="http://www.w3.org/2000/svg">
<path d="M30.8824 12.2581C22.6471 12.2581 17.5 16.6308 15.4412 25.3763C18.5294 21.0036 22.1324 19.3638 26.25 20.457C28.5996 21.0801 30.2776 22.8893 32.1382 24.8953C35.1673 28.1585 38.6698 31.9355 46.3235 31.9355C54.5588 31.9355 59.7059 27.5627 61.7647 18.8172C58.6765 23.19 55.0735 24.8297 50.9559 23.7366C48.6063 23.1134 46.9283 21.3042 45.0676 19.2982C42.0412 16.035 38.5386 12.2581 30.8824 12.2581ZM15.4412 31.9355C7.20588 31.9355 2.05882 36.3082 0 45.0538C3.08824 40.681 6.69118 39.0412 10.8088 40.1344C13.1585 40.7575 14.8364 42.5667 16.6971 44.5728C19.7261 47.8359 23.2287 51.6129 30.8824 51.6129C39.1176 51.6129 44.2647 47.2401 46.3235 38.4946C43.2353 42.8674 39.6323 44.5072 35.5147 43.414C33.1651 42.7909 31.4871 40.9816 29.6265 38.9756C26.6 35.7124 23.0974 31.9355 15.4412 31.9355Z" fill="#64FFDA"/>
</svg>
